<mxfile host="app.diagrams.net" modified="2023-12-29T01:51:28.985Z" agent="Mozilla/5.0 (Windows NT 10.0; Win64; x64) AppleWebKit/537.36 (KHTML, like Gecko) Chrome/120.0.0.0 Safari/537.36" etag="TO6-RojQBUjq-dZ6MK2P" version="22.1.15" type="device">
  <diagram name="페이지-1" id="nJjQuzxzFOZdTHx67VrJ">
    <mxGraphModel dx="4049" dy="1129" grid="0" gridSize="10" guides="1" tooltips="1" connect="1" arrows="1" fold="1" page="0" pageScale="1" pageWidth="1169" pageHeight="827" background="#FFFFFF" math="0" shadow="0">
      <root>
        <mxCell id="0" />
        <mxCell id="1" parent="0" />
        <mxCell id="q1l0Mfk32L4LQjD-C9zq-31" value="" style="edgeStyle=orthogonalEdgeStyle;rounded=0;orthogonalLoop=1;jettySize=auto;html=1;verticalAlign=top;" parent="1" edge="1">
          <mxGeometry relative="1" as="geometry">
            <mxPoint x="1940" y="250" as="sourcePoint" />
          </mxGeometry>
        </mxCell>
        <mxCell id="7Ne4PcIB_8j4skOOkWno-11" value="" style="edgeStyle=orthogonalEdgeStyle;rounded=0;orthogonalLoop=1;jettySize=auto;html=1;fontStyle=0;fontSize=16;" parent="1" source="7Ne4PcIB_8j4skOOkWno-4" target="7Ne4PcIB_8j4skOOkWno-10" edge="1">
          <mxGeometry relative="1" as="geometry" />
        </mxCell>
        <mxCell id="7Ne4PcIB_8j4skOOkWno-23" style="edgeStyle=orthogonalEdgeStyle;rounded=0;orthogonalLoop=1;jettySize=auto;html=1;exitX=1;exitY=0.5;exitDx=0;exitDy=0;entryX=0;entryY=0.5;entryDx=0;entryDy=0;fontStyle=0;fontSize=16;" parent="1" source="7Ne4PcIB_8j4skOOkWno-4" target="7Ne4PcIB_8j4skOOkWno-8" edge="1">
          <mxGeometry relative="1" as="geometry" />
        </mxCell>
        <mxCell id="7Ne4PcIB_8j4skOOkWno-24" style="edgeStyle=orthogonalEdgeStyle;rounded=0;orthogonalLoop=1;jettySize=auto;html=1;exitX=1;exitY=0.5;exitDx=0;exitDy=0;entryX=0;entryY=0.5;entryDx=0;entryDy=0;fontStyle=0;fontSize=16;" parent="1" source="7Ne4PcIB_8j4skOOkWno-4" target="7Ne4PcIB_8j4skOOkWno-9" edge="1">
          <mxGeometry relative="1" as="geometry" />
        </mxCell>
        <mxCell id="xCxDMBVjV3h_iy_8SHyu-151" value="" style="edgeStyle=orthogonalEdgeStyle;rounded=0;orthogonalLoop=1;jettySize=auto;html=1;fontStyle=0;fontSize=16;" edge="1" parent="1" source="7Ne4PcIB_8j4skOOkWno-4" target="xCxDMBVjV3h_iy_8SHyu-104">
          <mxGeometry relative="1" as="geometry" />
        </mxCell>
        <mxCell id="7Ne4PcIB_8j4skOOkWno-4" value="app.js" style="ellipse;whiteSpace=wrap;html=1;strokeWidth=7;strokeColor=#f36262;fontSize=16;fontStyle=0;fontFamily=Lucida Console;" parent="1" vertex="1">
          <mxGeometry x="-1012" y="499" width="120" height="80" as="geometry" />
        </mxCell>
        <mxCell id="7Ne4PcIB_8j4skOOkWno-8" value="Header" style="ellipse;whiteSpace=wrap;html=1;strokeWidth=7;strokeColor=#dc4eef;fontSize=16;fontStyle=0;fontFamily=Lucida Console;" parent="1" vertex="1">
          <mxGeometry x="-814" y="376" width="120" height="80" as="geometry" />
        </mxCell>
        <mxCell id="xCxDMBVjV3h_iy_8SHyu-10" style="edgeStyle=orthogonalEdgeStyle;rounded=0;orthogonalLoop=1;jettySize=auto;html=1;exitX=1;exitY=0.5;exitDx=0;exitDy=0;entryX=0;entryY=0.5;entryDx=0;entryDy=0;fontStyle=0;fontSize=16;" edge="1" parent="1" source="7Ne4PcIB_8j4skOOkWno-9" target="xCxDMBVjV3h_iy_8SHyu-8">
          <mxGeometry relative="1" as="geometry" />
        </mxCell>
        <mxCell id="7Ne4PcIB_8j4skOOkWno-9" value="Footer" style="ellipse;whiteSpace=wrap;html=1;strokeWidth=7;strokeColor=#dc4eef;fontSize=16;fontStyle=0;fontFamily=Lucida Console;" parent="1" vertex="1">
          <mxGeometry x="-814" y="622" width="120" height="80" as="geometry" />
        </mxCell>
        <mxCell id="xCxDMBVjV3h_iy_8SHyu-20" style="edgeStyle=orthogonalEdgeStyle;rounded=0;orthogonalLoop=1;jettySize=auto;html=1;exitX=1;exitY=0.5;exitDx=0;exitDy=0;entryX=0;entryY=0.5;entryDx=0;entryDy=0;fontStyle=0;fontSize=16;" edge="1" parent="1" source="7Ne4PcIB_8j4skOOkWno-10" target="FywolilYDu0weeQNcM6k-2">
          <mxGeometry relative="1" as="geometry" />
        </mxCell>
        <mxCell id="xCxDMBVjV3h_iy_8SHyu-21" style="edgeStyle=orthogonalEdgeStyle;rounded=0;orthogonalLoop=1;jettySize=auto;html=1;exitX=1;exitY=0.5;exitDx=0;exitDy=0;entryX=0;entryY=0.5;entryDx=0;entryDy=0;fontStyle=0;fontSize=16;" edge="1" parent="1" source="7Ne4PcIB_8j4skOOkWno-10" target="7Ne4PcIB_8j4skOOkWno-18">
          <mxGeometry relative="1" as="geometry" />
        </mxCell>
        <mxCell id="xCxDMBVjV3h_iy_8SHyu-23" style="edgeStyle=orthogonalEdgeStyle;rounded=0;orthogonalLoop=1;jettySize=auto;html=1;exitX=1;exitY=0.5;exitDx=0;exitDy=0;entryX=0;entryY=0.5;entryDx=0;entryDy=0;fontStyle=0;fontSize=16;" edge="1" parent="1" source="7Ne4PcIB_8j4skOOkWno-10" target="FywolilYDu0weeQNcM6k-3">
          <mxGeometry relative="1" as="geometry" />
        </mxCell>
        <mxCell id="xCxDMBVjV3h_iy_8SHyu-26" style="edgeStyle=orthogonalEdgeStyle;rounded=0;orthogonalLoop=1;jettySize=auto;html=1;exitX=1;exitY=0.5;exitDx=0;exitDy=0;entryX=0;entryY=0.5;entryDx=0;entryDy=0;fontStyle=0;fontSize=16;" edge="1" parent="1" source="7Ne4PcIB_8j4skOOkWno-10" target="FywolilYDu0weeQNcM6k-4">
          <mxGeometry relative="1" as="geometry" />
        </mxCell>
        <mxCell id="xCxDMBVjV3h_iy_8SHyu-123" style="edgeStyle=orthogonalEdgeStyle;rounded=0;orthogonalLoop=1;jettySize=auto;html=1;exitX=1;exitY=0.5;exitDx=0;exitDy=0;entryX=0;entryY=0.5;entryDx=0;entryDy=0;fontStyle=0;fontSize=16;" edge="1" parent="1" source="7Ne4PcIB_8j4skOOkWno-10" target="7Ne4PcIB_8j4skOOkWno-14">
          <mxGeometry relative="1" as="geometry" />
        </mxCell>
        <mxCell id="xCxDMBVjV3h_iy_8SHyu-124" style="edgeStyle=orthogonalEdgeStyle;rounded=0;orthogonalLoop=1;jettySize=auto;html=1;exitX=1;exitY=0.5;exitDx=0;exitDy=0;entryX=0;entryY=0.5;entryDx=0;entryDy=0;fontStyle=0;fontSize=16;" edge="1" parent="1" source="7Ne4PcIB_8j4skOOkWno-10" target="7Ne4PcIB_8j4skOOkWno-15">
          <mxGeometry relative="1" as="geometry" />
        </mxCell>
        <mxCell id="7Ne4PcIB_8j4skOOkWno-10" value="Main" style="ellipse;whiteSpace=wrap;html=1;strokeWidth=7;strokeColor=#dc4eef;fontSize=16;fontStyle=0;fontFamily=Lucida Console;" parent="1" vertex="1">
          <mxGeometry x="-814" y="499" width="120" height="80" as="geometry" />
        </mxCell>
        <mxCell id="7Ne4PcIB_8j4skOOkWno-32" style="edgeStyle=orthogonalEdgeStyle;rounded=0;orthogonalLoop=1;jettySize=auto;html=1;entryX=0;entryY=0.5;entryDx=0;entryDy=0;fontStyle=0;fontSize=16;" parent="1" source="7Ne4PcIB_8j4skOOkWno-14" target="7Ne4PcIB_8j4skOOkWno-16" edge="1">
          <mxGeometry relative="1" as="geometry" />
        </mxCell>
        <mxCell id="xCxDMBVjV3h_iy_8SHyu-83" style="edgeStyle=orthogonalEdgeStyle;rounded=0;orthogonalLoop=1;jettySize=auto;html=1;exitX=0.5;exitY=1;exitDx=0;exitDy=0;entryX=0.5;entryY=0;entryDx=0;entryDy=0;fontStyle=0;fontSize=16;" edge="1" parent="1" source="7Ne4PcIB_8j4skOOkWno-14" target="FywolilYDu0weeQNcM6k-2">
          <mxGeometry relative="1" as="geometry" />
        </mxCell>
        <mxCell id="7Ne4PcIB_8j4skOOkWno-14" value="Login&lt;br style=&quot;font-size: 16px;&quot;&gt;/login" style="ellipse;whiteSpace=wrap;html=1;strokeWidth=7;strokeColor=#ffb22e;fontSize=16;fontStyle=0;fontFamily=Lucida Console;" parent="1" vertex="1">
          <mxGeometry x="-482" y="172" width="120" height="80" as="geometry" />
        </mxCell>
        <mxCell id="7Ne4PcIB_8j4skOOkWno-15" value="Join&lt;br style=&quot;font-size: 16px;&quot;&gt;/join" style="ellipse;whiteSpace=wrap;html=1;strokeWidth=7;strokeColor=#ffb22e;fontSize=16;fontStyle=0;fontFamily=Lucida Console;" parent="1" vertex="1">
          <mxGeometry x="-482" y="67" width="120" height="80" as="geometry" />
        </mxCell>
        <mxCell id="xCxDMBVjV3h_iy_8SHyu-139" style="edgeStyle=orthogonalEdgeStyle;rounded=0;orthogonalLoop=1;jettySize=auto;html=1;exitX=1;exitY=0.5;exitDx=0;exitDy=0;entryX=0;entryY=0.5;entryDx=0;entryDy=0;fontStyle=0;fontSize=16;" edge="1" parent="1" source="7Ne4PcIB_8j4skOOkWno-16" target="xCxDMBVjV3h_iy_8SHyu-85">
          <mxGeometry relative="1" as="geometry" />
        </mxCell>
        <mxCell id="7Ne4PcIB_8j4skOOkWno-16" value="Mypage&lt;br style=&quot;font-size: 16px;&quot;&gt;/mypage" style="ellipse;whiteSpace=wrap;html=1;strokeWidth=7;strokeColor=#7de8e1;fontSize=16;fontStyle=0;fontFamily=Lucida Console;" parent="1" vertex="1">
          <mxGeometry x="-319" y="172" width="120" height="80" as="geometry" />
        </mxCell>
        <mxCell id="xCxDMBVjV3h_iy_8SHyu-132" style="edgeStyle=orthogonalEdgeStyle;rounded=0;orthogonalLoop=1;jettySize=auto;html=1;exitX=1;exitY=0.5;exitDx=0;exitDy=0;entryX=0;entryY=0.5;entryDx=0;entryDy=0;fontStyle=0;fontSize=16;" edge="1" parent="1" source="7Ne4PcIB_8j4skOOkWno-18" target="xCxDMBVjV3h_iy_8SHyu-128">
          <mxGeometry relative="1" as="geometry" />
        </mxCell>
        <mxCell id="7Ne4PcIB_8j4skOOkWno-18" value="Store" style="ellipse;whiteSpace=wrap;html=1;strokeWidth=7;fontSize=16;fontStyle=0;fontFamily=Lucida Console;strokeColor=#0ccf19;" parent="1" vertex="1">
          <mxGeometry x="-319" y="398" width="120" height="80" as="geometry" />
        </mxCell>
        <mxCell id="xCxDMBVjV3h_iy_8SHyu-131" style="edgeStyle=orthogonalEdgeStyle;rounded=0;orthogonalLoop=1;jettySize=auto;html=1;exitX=1;exitY=0.5;exitDx=0;exitDy=0;entryX=0;entryY=0.5;entryDx=0;entryDy=0;fontStyle=0;fontSize=16;" edge="1" parent="1" source="FywolilYDu0weeQNcM6k-2" target="xCxDMBVjV3h_iy_8SHyu-127">
          <mxGeometry relative="1" as="geometry" />
        </mxCell>
        <mxCell id="FywolilYDu0weeQNcM6k-2" value="Menu" style="ellipse;whiteSpace=wrap;html=1;strokeWidth=7;fontSize=16;fontStyle=0;fontFamily=Lucida Console;strokeColor=#0ccf19;" parent="1" vertex="1">
          <mxGeometry x="-319" y="291" width="120" height="80" as="geometry" />
        </mxCell>
        <mxCell id="xCxDMBVjV3h_iy_8SHyu-133" style="edgeStyle=orthogonalEdgeStyle;rounded=0;orthogonalLoop=1;jettySize=auto;html=1;exitX=1;exitY=0.5;exitDx=0;exitDy=0;entryX=0;entryY=0.5;entryDx=0;entryDy=0;fontStyle=0;fontSize=16;" edge="1" parent="1" source="FywolilYDu0weeQNcM6k-3" target="xCxDMBVjV3h_iy_8SHyu-129">
          <mxGeometry relative="1" as="geometry" />
        </mxCell>
        <mxCell id="FywolilYDu0weeQNcM6k-3" value="What&#39;s New" style="ellipse;whiteSpace=wrap;html=1;strokeWidth=7;fontSize=16;fontStyle=0;fontFamily=Lucida Console;strokeColor=#0ccf19;" parent="1" vertex="1">
          <mxGeometry x="-319" y="500" width="120" height="80" as="geometry" />
        </mxCell>
        <mxCell id="xCxDMBVjV3h_iy_8SHyu-134" style="edgeStyle=orthogonalEdgeStyle;rounded=0;orthogonalLoop=1;jettySize=auto;html=1;exitX=1;exitY=0.5;exitDx=0;exitDy=0;entryX=0;entryY=0.5;entryDx=0;entryDy=0;fontStyle=0;fontSize=16;" edge="1" parent="1" source="FywolilYDu0weeQNcM6k-4" target="xCxDMBVjV3h_iy_8SHyu-130">
          <mxGeometry relative="1" as="geometry" />
        </mxCell>
        <mxCell id="FywolilYDu0weeQNcM6k-4" value="Story" style="ellipse;whiteSpace=wrap;html=1;strokeWidth=7;fontSize=16;fontStyle=0;fontFamily=Lucida Console;strokeColor=#0ccf19;" parent="1" vertex="1">
          <mxGeometry x="-319" y="601" width="120" height="80" as="geometry" />
        </mxCell>
        <mxCell id="xCxDMBVjV3h_iy_8SHyu-153" style="edgeStyle=orthogonalEdgeStyle;rounded=0;orthogonalLoop=1;jettySize=auto;html=1;exitX=0;exitY=0.5;exitDx=0;exitDy=0;entryX=1;entryY=0.5;entryDx=0;entryDy=0;fontStyle=0;fontSize=16;" edge="1" parent="1" source="xCxDMBVjV3h_iy_8SHyu-1" target="xCxDMBVjV3h_iy_8SHyu-100">
          <mxGeometry relative="1" as="geometry" />
        </mxCell>
        <mxCell id="xCxDMBVjV3h_iy_8SHyu-154" style="edgeStyle=orthogonalEdgeStyle;rounded=0;orthogonalLoop=1;jettySize=auto;html=1;exitX=0;exitY=0.5;exitDx=0;exitDy=0;entryX=1;entryY=0.5;entryDx=0;entryDy=0;fontStyle=0;fontSize=16;" edge="1" parent="1" source="xCxDMBVjV3h_iy_8SHyu-1" target="xCxDMBVjV3h_iy_8SHyu-101">
          <mxGeometry relative="1" as="geometry" />
        </mxCell>
        <mxCell id="xCxDMBVjV3h_iy_8SHyu-155" style="edgeStyle=orthogonalEdgeStyle;rounded=0;orthogonalLoop=1;jettySize=auto;html=1;exitX=0;exitY=0.5;exitDx=0;exitDy=0;entryX=1;entryY=0.5;entryDx=0;entryDy=0;fontStyle=0;fontSize=16;" edge="1" parent="1" source="xCxDMBVjV3h_iy_8SHyu-1" target="xCxDMBVjV3h_iy_8SHyu-102">
          <mxGeometry relative="1" as="geometry" />
        </mxCell>
        <mxCell id="xCxDMBVjV3h_iy_8SHyu-156" style="edgeStyle=orthogonalEdgeStyle;rounded=0;orthogonalLoop=1;jettySize=auto;html=1;exitX=0;exitY=0.5;exitDx=0;exitDy=0;entryX=1;entryY=0.5;entryDx=0;entryDy=0;fontStyle=0;fontSize=16;" edge="1" parent="1" source="xCxDMBVjV3h_iy_8SHyu-1" target="xCxDMBVjV3h_iy_8SHyu-103">
          <mxGeometry relative="1" as="geometry" />
        </mxCell>
        <mxCell id="xCxDMBVjV3h_iy_8SHyu-157" style="edgeStyle=orthogonalEdgeStyle;rounded=0;orthogonalLoop=1;jettySize=auto;html=1;exitX=0;exitY=0.5;exitDx=0;exitDy=0;entryX=1;entryY=0.5;entryDx=0;entryDy=0;fontStyle=0;fontSize=16;" edge="1" parent="1" source="xCxDMBVjV3h_iy_8SHyu-1" target="xCxDMBVjV3h_iy_8SHyu-106">
          <mxGeometry relative="1" as="geometry" />
        </mxCell>
        <mxCell id="xCxDMBVjV3h_iy_8SHyu-158" style="edgeStyle=orthogonalEdgeStyle;rounded=0;orthogonalLoop=1;jettySize=auto;html=1;exitX=0;exitY=0.5;exitDx=0;exitDy=0;entryX=1;entryY=0.5;entryDx=0;entryDy=0;fontStyle=0;fontSize=16;" edge="1" parent="1" source="xCxDMBVjV3h_iy_8SHyu-1" target="xCxDMBVjV3h_iy_8SHyu-107">
          <mxGeometry relative="1" as="geometry" />
        </mxCell>
        <mxCell id="xCxDMBVjV3h_iy_8SHyu-159" style="edgeStyle=orthogonalEdgeStyle;rounded=0;orthogonalLoop=1;jettySize=auto;html=1;exitX=0;exitY=0.5;exitDx=0;exitDy=0;entryX=1;entryY=0.5;entryDx=0;entryDy=0;fontStyle=0;fontSize=16;" edge="1" parent="1" source="xCxDMBVjV3h_iy_8SHyu-1" target="xCxDMBVjV3h_iy_8SHyu-108">
          <mxGeometry relative="1" as="geometry" />
        </mxCell>
        <mxCell id="xCxDMBVjV3h_iy_8SHyu-160" style="edgeStyle=orthogonalEdgeStyle;rounded=0;orthogonalLoop=1;jettySize=auto;html=1;exitX=0;exitY=0.5;exitDx=0;exitDy=0;entryX=1;entryY=0.5;entryDx=0;entryDy=0;fontStyle=0;fontSize=16;" edge="1" parent="1" source="xCxDMBVjV3h_iy_8SHyu-1" target="xCxDMBVjV3h_iy_8SHyu-109">
          <mxGeometry relative="1" as="geometry" />
        </mxCell>
        <mxCell id="xCxDMBVjV3h_iy_8SHyu-161" style="edgeStyle=orthogonalEdgeStyle;rounded=0;orthogonalLoop=1;jettySize=auto;html=1;exitX=0;exitY=0.5;exitDx=0;exitDy=0;entryX=1;entryY=0.5;entryDx=0;entryDy=0;fontStyle=0;fontSize=16;" edge="1" parent="1" source="xCxDMBVjV3h_iy_8SHyu-1" target="xCxDMBVjV3h_iy_8SHyu-110">
          <mxGeometry relative="1" as="geometry" />
        </mxCell>
        <mxCell id="xCxDMBVjV3h_iy_8SHyu-1" value="Admin Main" style="ellipse;whiteSpace=wrap;html=1;strokeWidth=7;strokeColor=#dc4eef;fontSize=16;fontStyle=0;fontFamily=Lucida Console;" vertex="1" parent="1">
          <mxGeometry x="-1341" y="500" width="120" height="80" as="geometry" />
        </mxCell>
        <mxCell id="xCxDMBVjV3h_iy_8SHyu-8" value="FooterLink" style="ellipse;whiteSpace=wrap;html=1;strokeWidth=7;strokeColor=#41abfb;fontSize=16;fontStyle=0;fontFamily=Lucida Console;" vertex="1" parent="1">
          <mxGeometry x="-640" y="622" width="120" height="80" as="geometry" />
        </mxCell>
        <mxCell id="xCxDMBVjV3h_iy_8SHyu-85" value="Order Detail" style="ellipse;whiteSpace=wrap;html=1;strokeWidth=7;strokeColor=#7de8e1;fontSize=16;fontStyle=0;fontFamily=Lucida Console;" vertex="1" parent="1">
          <mxGeometry x="-157" y="172" width="120" height="80" as="geometry" />
        </mxCell>
        <mxCell id="xCxDMBVjV3h_iy_8SHyu-141" value="" style="edgeStyle=orthogonalEdgeStyle;rounded=0;orthogonalLoop=1;jettySize=auto;html=1;fontStyle=0;fontSize=16;" edge="1" parent="1" source="xCxDMBVjV3h_iy_8SHyu-100" target="xCxDMBVjV3h_iy_8SHyu-113">
          <mxGeometry relative="1" as="geometry" />
        </mxCell>
        <mxCell id="xCxDMBVjV3h_iy_8SHyu-100" value="Menu" style="ellipse;whiteSpace=wrap;html=1;strokeWidth=7;fontSize=16;fontStyle=0;fontFamily=Lucida Console;strokeColor=#0ccf19;" vertex="1" parent="1">
          <mxGeometry x="-1512" y="100" width="120" height="80" as="geometry" />
        </mxCell>
        <mxCell id="xCxDMBVjV3h_iy_8SHyu-142" value="" style="edgeStyle=orthogonalEdgeStyle;rounded=0;orthogonalLoop=1;jettySize=auto;html=1;fontStyle=0;fontSize=16;" edge="1" parent="1" source="xCxDMBVjV3h_iy_8SHyu-101" target="xCxDMBVjV3h_iy_8SHyu-114">
          <mxGeometry relative="1" as="geometry" />
        </mxCell>
        <mxCell id="xCxDMBVjV3h_iy_8SHyu-101" value="Store" style="ellipse;whiteSpace=wrap;html=1;strokeWidth=7;fontSize=16;fontStyle=0;fontFamily=Lucida Console;strokeColor=#0ccf19;" vertex="1" parent="1">
          <mxGeometry x="-1512" y="200" width="120" height="80" as="geometry" />
        </mxCell>
        <mxCell id="xCxDMBVjV3h_iy_8SHyu-143" value="" style="edgeStyle=orthogonalEdgeStyle;rounded=0;orthogonalLoop=1;jettySize=auto;html=1;fontStyle=0;fontSize=16;" edge="1" parent="1" source="xCxDMBVjV3h_iy_8SHyu-102" target="xCxDMBVjV3h_iy_8SHyu-115">
          <mxGeometry relative="1" as="geometry" />
        </mxCell>
        <mxCell id="xCxDMBVjV3h_iy_8SHyu-102" value="What&#39;s New" style="ellipse;whiteSpace=wrap;html=1;strokeWidth=7;fontSize=16;fontStyle=0;fontFamily=Lucida Console;strokeColor=#0ccf19;" vertex="1" parent="1">
          <mxGeometry x="-1512" y="300" width="120" height="80" as="geometry" />
        </mxCell>
        <mxCell id="xCxDMBVjV3h_iy_8SHyu-144" value="" style="edgeStyle=orthogonalEdgeStyle;rounded=0;orthogonalLoop=1;jettySize=auto;html=1;fontStyle=0;fontSize=16;" edge="1" parent="1" source="xCxDMBVjV3h_iy_8SHyu-103" target="xCxDMBVjV3h_iy_8SHyu-116">
          <mxGeometry relative="1" as="geometry" />
        </mxCell>
        <mxCell id="xCxDMBVjV3h_iy_8SHyu-103" value="Story" style="ellipse;whiteSpace=wrap;html=1;strokeWidth=7;fontSize=16;fontStyle=0;fontFamily=Lucida Console;strokeColor=#0ccf19;" vertex="1" parent="1">
          <mxGeometry x="-1509" y="400" width="120" height="80" as="geometry" />
        </mxCell>
        <mxCell id="xCxDMBVjV3h_iy_8SHyu-152" value="" style="edgeStyle=orthogonalEdgeStyle;rounded=0;orthogonalLoop=1;jettySize=auto;html=1;fontStyle=0;fontSize=16;" edge="1" parent="1" source="xCxDMBVjV3h_iy_8SHyu-104" target="xCxDMBVjV3h_iy_8SHyu-1">
          <mxGeometry relative="1" as="geometry" />
        </mxCell>
        <mxCell id="xCxDMBVjV3h_iy_8SHyu-104" value="Login&lt;br style=&quot;font-size: 16px;&quot;&gt;/login" style="ellipse;whiteSpace=wrap;html=1;strokeWidth=7;strokeColor=#ffb22e;fontSize=16;fontStyle=0;fontFamily=Lucida Console;" vertex="1" parent="1">
          <mxGeometry x="-1176" y="499" width="120" height="80" as="geometry" />
        </mxCell>
        <mxCell id="xCxDMBVjV3h_iy_8SHyu-145" value="" style="edgeStyle=orthogonalEdgeStyle;rounded=0;orthogonalLoop=1;jettySize=auto;html=1;fontStyle=0;fontSize=16;" edge="1" parent="1" source="xCxDMBVjV3h_iy_8SHyu-106" target="xCxDMBVjV3h_iy_8SHyu-117">
          <mxGeometry relative="1" as="geometry" />
        </mxCell>
        <mxCell id="xCxDMBVjV3h_iy_8SHyu-106" value="Order" style="ellipse;whiteSpace=wrap;html=1;strokeWidth=7;fontSize=16;fontStyle=0;fontFamily=Lucida Console;strokeColor=#0ccf19;" vertex="1" parent="1">
          <mxGeometry x="-1509" y="500" width="120" height="80" as="geometry" />
        </mxCell>
        <mxCell id="xCxDMBVjV3h_iy_8SHyu-146" value="" style="edgeStyle=orthogonalEdgeStyle;rounded=0;orthogonalLoop=1;jettySize=auto;html=1;fontStyle=0;fontSize=16;" edge="1" parent="1" source="xCxDMBVjV3h_iy_8SHyu-107" target="xCxDMBVjV3h_iy_8SHyu-118">
          <mxGeometry relative="1" as="geometry" />
        </mxCell>
        <mxCell id="xCxDMBVjV3h_iy_8SHyu-107" value="Banner" style="ellipse;whiteSpace=wrap;html=1;strokeWidth=7;fontSize=16;fontStyle=0;fontFamily=Lucida Console;strokeColor=#0ccf19;" vertex="1" parent="1">
          <mxGeometry x="-1509" y="600" width="120" height="80" as="geometry" />
        </mxCell>
        <mxCell id="xCxDMBVjV3h_iy_8SHyu-147" value="" style="edgeStyle=orthogonalEdgeStyle;rounded=0;orthogonalLoop=1;jettySize=auto;html=1;fontStyle=0;fontSize=16;" edge="1" parent="1" source="xCxDMBVjV3h_iy_8SHyu-108" target="xCxDMBVjV3h_iy_8SHyu-119">
          <mxGeometry relative="1" as="geometry" />
        </mxCell>
        <mxCell id="xCxDMBVjV3h_iy_8SHyu-108" value="Option" style="ellipse;whiteSpace=wrap;html=1;strokeWidth=7;fontSize=16;fontStyle=0;fontFamily=Lucida Console;strokeColor=#0ccf19;" vertex="1" parent="1">
          <mxGeometry x="-1509" y="700" width="120" height="80" as="geometry" />
        </mxCell>
        <mxCell id="xCxDMBVjV3h_iy_8SHyu-148" value="" style="edgeStyle=orthogonalEdgeStyle;rounded=0;orthogonalLoop=1;jettySize=auto;html=1;fontStyle=0;fontSize=16;" edge="1" parent="1" source="xCxDMBVjV3h_iy_8SHyu-109" target="xCxDMBVjV3h_iy_8SHyu-120">
          <mxGeometry relative="1" as="geometry" />
        </mxCell>
        <mxCell id="xCxDMBVjV3h_iy_8SHyu-109" value="Silder" style="ellipse;whiteSpace=wrap;html=1;strokeWidth=7;fontSize=16;fontStyle=0;fontFamily=Lucida Console;strokeColor=#0ccf19;" vertex="1" parent="1">
          <mxGeometry x="-1509" y="800" width="120" height="80" as="geometry" />
        </mxCell>
        <mxCell id="xCxDMBVjV3h_iy_8SHyu-149" value="" style="edgeStyle=orthogonalEdgeStyle;rounded=0;orthogonalLoop=1;jettySize=auto;html=1;fontStyle=0;fontSize=16;" edge="1" parent="1" source="xCxDMBVjV3h_iy_8SHyu-110" target="xCxDMBVjV3h_iy_8SHyu-140">
          <mxGeometry relative="1" as="geometry" />
        </mxCell>
        <mxCell id="xCxDMBVjV3h_iy_8SHyu-110" value="Manual" style="ellipse;whiteSpace=wrap;html=1;strokeWidth=7;fontSize=16;fontStyle=0;fontFamily=Lucida Console;strokeColor=#0ccf19;" vertex="1" parent="1">
          <mxGeometry x="-1509" y="900" width="120" height="80" as="geometry" />
        </mxCell>
        <mxCell id="xCxDMBVjV3h_iy_8SHyu-113" value="Menu Detail" style="ellipse;whiteSpace=wrap;html=1;strokeWidth=7;strokeColor=#41abfb;fontSize=16;fontStyle=0;fontFamily=Lucida Console;" vertex="1" parent="1">
          <mxGeometry x="-1701.5" y="100" width="120" height="80" as="geometry" />
        </mxCell>
        <mxCell id="xCxDMBVjV3h_iy_8SHyu-114" value="Menu Detail" style="ellipse;whiteSpace=wrap;html=1;strokeWidth=7;strokeColor=#41abfb;fontSize=16;fontStyle=0;fontFamily=Lucida Console;" vertex="1" parent="1">
          <mxGeometry x="-1701.5" y="200" width="120" height="80" as="geometry" />
        </mxCell>
        <mxCell id="xCxDMBVjV3h_iy_8SHyu-115" value="Menu Detail" style="ellipse;whiteSpace=wrap;html=1;strokeWidth=7;strokeColor=#41abfb;fontSize=16;fontStyle=0;fontFamily=Lucida Console;" vertex="1" parent="1">
          <mxGeometry x="-1701.5" y="300" width="120" height="80" as="geometry" />
        </mxCell>
        <mxCell id="xCxDMBVjV3h_iy_8SHyu-116" value="Menu Detail" style="ellipse;whiteSpace=wrap;html=1;strokeWidth=7;strokeColor=#41abfb;fontSize=16;fontStyle=0;fontFamily=Lucida Console;" vertex="1" parent="1">
          <mxGeometry x="-1701.5" y="400" width="111" height="80" as="geometry" />
        </mxCell>
        <mxCell id="xCxDMBVjV3h_iy_8SHyu-117" value="Menu Detail" style="ellipse;whiteSpace=wrap;html=1;strokeWidth=7;strokeColor=#41abfb;fontSize=16;fontStyle=0;fontFamily=Lucida Console;" vertex="1" parent="1">
          <mxGeometry x="-1701.5" y="500" width="120" height="80" as="geometry" />
        </mxCell>
        <mxCell id="xCxDMBVjV3h_iy_8SHyu-118" value="Menu Detail" style="ellipse;whiteSpace=wrap;html=1;strokeWidth=7;strokeColor=#41abfb;fontSize=16;fontStyle=0;fontFamily=Lucida Console;" vertex="1" parent="1">
          <mxGeometry x="-1701.5" y="600" width="120" height="80" as="geometry" />
        </mxCell>
        <mxCell id="xCxDMBVjV3h_iy_8SHyu-119" value="Menu Detail" style="ellipse;whiteSpace=wrap;html=1;strokeWidth=7;strokeColor=#41abfb;fontSize=16;fontStyle=0;fontFamily=Lucida Console;" vertex="1" parent="1">
          <mxGeometry x="-1701.5" y="700" width="120" height="80" as="geometry" />
        </mxCell>
        <mxCell id="xCxDMBVjV3h_iy_8SHyu-120" value="Menu Detail" style="ellipse;whiteSpace=wrap;html=1;strokeWidth=7;strokeColor=#41abfb;fontSize=16;fontStyle=0;fontFamily=Lucida Console;" vertex="1" parent="1">
          <mxGeometry x="-1701.5" y="800" width="120" height="80" as="geometry" />
        </mxCell>
        <mxCell id="xCxDMBVjV3h_iy_8SHyu-137" value="" style="edgeStyle=orthogonalEdgeStyle;rounded=0;orthogonalLoop=1;jettySize=auto;html=1;fontStyle=0;fontSize=16;" edge="1" parent="1" source="xCxDMBVjV3h_iy_8SHyu-127" target="xCxDMBVjV3h_iy_8SHyu-135">
          <mxGeometry relative="1" as="geometry" />
        </mxCell>
        <mxCell id="xCxDMBVjV3h_iy_8SHyu-127" value="Menu Detail pages" style="ellipse;whiteSpace=wrap;html=1;strokeWidth=7;strokeColor=#41abfb;fontSize=16;fontStyle=0;fontFamily=Lucida Console;" vertex="1" parent="1">
          <mxGeometry x="-157" y="291" width="120" height="80" as="geometry" />
        </mxCell>
        <mxCell id="xCxDMBVjV3h_iy_8SHyu-128" value="Store Detail&lt;br style=&quot;font-size: 16px;&quot;&gt;pages" style="ellipse;whiteSpace=wrap;html=1;strokeWidth=7;strokeColor=#41abfb;fontSize=16;fontStyle=0;fontFamily=Lucida Console;" vertex="1" parent="1">
          <mxGeometry x="-157" y="398" width="120" height="80" as="geometry" />
        </mxCell>
        <mxCell id="xCxDMBVjV3h_iy_8SHyu-129" value="What&#39;s New Detail pages" style="ellipse;whiteSpace=wrap;html=1;strokeWidth=7;strokeColor=#41abfb;fontSize=16;fontStyle=0;fontFamily=Lucida Console;" vertex="1" parent="1">
          <mxGeometry x="-157" y="500" width="120" height="80" as="geometry" />
        </mxCell>
        <mxCell id="xCxDMBVjV3h_iy_8SHyu-130" value="Story Detail&lt;br style=&quot;font-size: 16px;&quot;&gt;pages" style="ellipse;whiteSpace=wrap;html=1;strokeWidth=7;strokeColor=#41abfb;fontSize=16;fontStyle=0;fontFamily=Lucida Console;" vertex="1" parent="1">
          <mxGeometry x="-157" y="601" width="120" height="80" as="geometry" />
        </mxCell>
        <mxCell id="xCxDMBVjV3h_iy_8SHyu-138" value="" style="edgeStyle=orthogonalEdgeStyle;rounded=0;orthogonalLoop=1;jettySize=auto;html=1;fontStyle=0;fontSize=16;" edge="1" parent="1" source="xCxDMBVjV3h_iy_8SHyu-135" target="xCxDMBVjV3h_iy_8SHyu-136">
          <mxGeometry relative="1" as="geometry" />
        </mxCell>
        <mxCell id="xCxDMBVjV3h_iy_8SHyu-135" value="Cart" style="ellipse;whiteSpace=wrap;html=1;strokeWidth=7;strokeColor=#41abfb;fontSize=16;fontStyle=0;fontFamily=Lucida Console;" vertex="1" parent="1">
          <mxGeometry x="5" y="291" width="120" height="80" as="geometry" />
        </mxCell>
        <mxCell id="xCxDMBVjV3h_iy_8SHyu-136" value="payment" style="ellipse;whiteSpace=wrap;html=1;strokeWidth=7;strokeColor=#41abfb;fontSize=16;fontStyle=0;fontFamily=Lucida Console;" vertex="1" parent="1">
          <mxGeometry x="167" y="291" width="120" height="80" as="geometry" />
        </mxCell>
        <mxCell id="xCxDMBVjV3h_iy_8SHyu-140" value="Menu Detail" style="ellipse;whiteSpace=wrap;html=1;strokeWidth=7;strokeColor=#41abfb;fontSize=16;fontStyle=0;fontFamily=Lucida Console;" vertex="1" parent="1">
          <mxGeometry x="-1706" y="900" width="120" height="80" as="geometry" />
        </mxCell>
        <mxCell id="xCxDMBVjV3h_iy_8SHyu-162" value="&lt;font style=&quot;font-size: 32px;&quot;&gt;Main&lt;/font&gt;" style="text;html=1;strokeColor=none;fillColor=none;align=center;verticalAlign=middle;whiteSpace=wrap;rounded=0;" vertex="1" parent="1">
          <mxGeometry x="-944" y="437.5" width="90" height="47" as="geometry" />
        </mxCell>
        <mxCell id="xCxDMBVjV3h_iy_8SHyu-163" value="&lt;font style=&quot;font-size: 32px;&quot;&gt;Admin&lt;/font&gt;" style="text;html=1;strokeColor=none;fillColor=none;align=center;verticalAlign=middle;whiteSpace=wrap;rounded=0;" vertex="1" parent="1">
          <mxGeometry x="-1104" y="422" width="127" height="78" as="geometry" />
        </mxCell>
      </root>
    </mxGraphModel>
  </diagram>
</mxfile>
